<svg xmlns="http://www.w3.org/2000/svg" width="16" height="15.52" viewBox="0 0 16 15.52"><defs><style>.a{fill:#005699;}</style></defs><g transform="translate(-2 -2.3)"><path class="a" d="M15.88,11.5a4.08,4.08,0,1,0,4.08,4.08A4.1,4.1,0,0,0,15.88,11.5Zm0,.96a3.282,3.282,0,0,1,1.76.56l-4.48,4a3.309,3.309,0,0,1-.4-1.52A3.22,3.22,0,0,1,15.88,12.46Zm0,6.24a3.091,3.091,0,0,1-2.16-.88l4.56-4.08a2.852,2.852,0,0,1,.64,1.84A3.007,3.007,0,0,1,15.88,18.7Z" transform="translate(-1.96 -1.84)"/><path class="a" d="M12,10.94l.56-.32A6.445,6.445,0,0,0,9.92,9.5a3.626,3.626,0,0,0,2.56-3.52A3.555,3.555,0,0,0,8.88,2.3,3.735,3.735,0,0,0,7.76,9.58,7.327,7.327,0,0,0,2,17.02a.547.547,0,0,0,.56.56.547.547,0,0,0,.56-.56c0-3.6,2.64-6.56,5.92-6.56a5.3,5.3,0,0,1,2.88.88A.971.971,0,0,1,12,10.94ZM8.88,8.7A2.68,2.68,0,1,1,11.6,6.06,2.631,2.631,0,0,1,8.88,8.7Z"/></g></svg>