<svg xmlns="http://www.w3.org/2000/svg" width="16" height="12" viewBox="0 0 16 12"><defs><style>.a{fill:#005699;}</style></defs><g transform="translate(-4.4 -6)"><g transform="translate(4.4 6)"><path class="a" d="M12.485,13H2.759C1.923,13,1.4,12.5,1.4,11.9V2.1A1.166,1.166,0,0,1,2.655,1H12.38a1.073,1.073,0,0,1,1.15,1.1V3.6l2.2-1.3a1.173,1.173,0,0,1,1.15,0,.993.993,0,0,1,.523.9v7.7a.842.842,0,0,1-.523.9.832.832,0,0,1-1.046-.1l-2.2-1.3v1.5A1.073,1.073,0,0,1,12.485,13ZM2.55,11.9Zm0,0H12.59V9.4c-.1-.2-.1-.3.209-.4a.485.485,0,0,1,.523,0l2.824,1.7V3.4L13.322,5A.485.485,0,0,1,12.8,5a.537.537,0,0,1-.314-.4V2.1H2.759c-.209,0-.209.1-.209.1Z" transform="translate(-1.4 -1)"/></g></g></svg>