<svg xmlns="http://www.w3.org/2000/svg" width="16" height="14.554" viewBox="0 0 16 14.554"><defs><style>.a{fill:#005699;}</style></defs><g transform="translate(-3.7 -4.4)"><g transform="translate(3.7 4.4)"><g transform="translate(0 0)"><path class="a" d="M5.134,14.954a.869.869,0,0,1-.482-.1A1.252,1.252,0,0,1,3.881,13.7V11.773H3.3a2.614,2.614,0,0,1-2.6-2.7V3.1A2.675,2.675,0,0,1,3.3.4H14a2.635,2.635,0,0,1,2.7,2.7v5.88a2.694,2.694,0,0,1-2.7,2.7H9.086L6,14.569A1.222,1.222,0,0,1,5.134,14.954ZM3.3,1.653A1.547,1.547,0,0,0,1.76,3.292v5.88A1.585,1.585,0,0,0,3.3,10.713H5.037V13.8a.094.094,0,0,0,.1.1h.193L8.7,10.617h5.4A1.585,1.585,0,0,0,15.64,9.075V3.1A1.585,1.585,0,0,0,14.1,1.557H3.3Z" transform="translate(-0.7 -0.4)"/></g></g></g></svg>