<svg xmlns="http://www.w3.org/2000/svg" width="15.338" height="16" viewBox="0 0 15.338 16"><defs><style>.a{fill:#005699;}</style></defs><g transform="translate(-2.404 -1.956)"><g transform="translate(2.404 1.956)"><g transform="translate(0)"><path class="a" d="M10.417,14.956a6.077,6.077,0,0,1-1.676-.239C4.669,13.6.359,9.049-.44,4.9A5.052,5.052,0,0,1,1.237-.37h0a2.456,2.456,0,0,1,2.075-.639A1.767,1.767,0,0,1,4.51.109a7.417,7.417,0,0,0,.4.8c.718,1.357,1.2,2.395.4,3.273h-.08l-.4.319c-1.118.718-1.118.8-.958,1.038a9.647,9.647,0,0,0,4.39,4.869c.239.16.319.16,1.038-.8.16-.16.239-.319.4-.479l.08-.08c.958-.8,1.916-.16,3.432.718l.559.319a1.849,1.849,0,0,1,.958,1.277,2.7,2.7,0,0,1-.718,2A4.721,4.721,0,0,1,10.417,14.956ZM1.875.508A3.893,3.893,0,0,0,.6,4.659c.718,3.752,4.79,7.983,8.382,9.02a3.72,3.72,0,0,0,4.151-1.038,1.254,1.254,0,0,0,.479-1.118.761.761,0,0,0-.479-.559l-.479-.319c-1.277-.8-1.756-1.038-2.075-.8a1.741,1.741,0,0,1-.319.4c-.639.8-1.357,1.756-2.475,1.118A10.6,10.6,0,0,1,2.913,6.016C2.195,4.9,3.232,4.18,4.19,3.541L4.51,3.3c.239-.319,0-.8-.639-1.916a7.417,7.417,0,0,1-.4-.8A.72.72,0,0,0,2.993.109c-.239-.08-.639.08-1.118.4Z" transform="translate(0.596 1.044)"/></g></g></g></svg>